<?xml version="1.0" encoding="utf-8"?>
<!-- Generator: Adobe Illustrator 24.1.0, SVG Export Plug-In . SVG Version: 6.00 Build 0)  -->
<svg version="1.1" id="Capa_1" xmlns="http://www.w3.org/2000/svg" xmlns:xlink="http://www.w3.org/1999/xlink" x="0px" y="0px"
	 viewBox="0 0 34 36" style="enable-background:new 0 0 34 36;" xml:space="preserve">
<style type="text/css">
	.st0{fill:#666666;}
</style>
<g>
	<path class="st0" d="M11.63,31.41c0.89,0,1.7,0.03,2.51-0.02c0.21-0.01,0.39-0.31,0.62-0.38c0.33-0.1,0.73-0.23,1.01-0.12
		c0.34,0.13,0.59,0.49,0.88,0.75c0.08-0.05,0.15-0.1,0.23-0.15c0.02,0.34,0.05,0.67,0.08,1.07c-5.09,0-10.13,0-15.46,0
		c0.12-1.96,0.11-3.94,0.42-5.87c0.11-0.64,0.97-1.26,1.63-1.72c0.94-0.67,1.99-1.21,3.02-1.76c0.68-0.36,0.69-0.73,0.32-1.35
		c-1.04-1.75-2-3.55-3-5.32c-0.14-0.25-0.31-0.53-0.55-0.67c-1.28-0.73-1.9-2.35-0.96-3.4c0.87-0.97,0.65-2.06,0.99-3.07
		c0.52-1.54,0.9-3.2,1.78-4.54c2.29-3.49,7.41-3.47,9.88-0.09c1.27,1.74,1.82,3.71,1.91,5.8c0.03,0.6,0.06,1.07,0.61,1.56
		c1.12,0.99,0.74,2.93-0.58,3.72c-0.3,0.18-0.54,0.51-0.72,0.81c-1,1.74-1.93,3.51-2.96,5.22c-0.34,0.57-0.39,0.94,0.24,1.29
		c0.86,0.48,1.68,1.03,2.57,1.46c0.75,0.36,1.03,0.84,0.75,1.69c-1.34-0.74-2.66-1.47-3.96-2.19c-1.51,1.03-2.06,2.3-1.62,4
		C11.53,29.14,11.51,30.21,11.63,31.41z M15.91,13.12c-2.5,0.13-4.52-0.65-6.4-1.86c-0.64-0.41-1.29-0.82-1.99-1.14
		c-1.69-0.79-3.28,0.06-3.31,1.87c-0.06,3.26,0.87,6.26,3.09,8.82c1.65,1.9,3.73,1.98,5.41,0.17
		C14.74,18.78,15.66,16.14,15.91,13.12z M15.95,11.75c0.08-2.19-0.38-4.59-1.65-6.26c-1.37-1.82-3.99-2.54-6.24-1.71
		C6.14,4.49,4.35,7.21,4.58,9.14C5.71,8.27,6.84,8.46,7.97,9.1c0.95,0.54,1.88,1.1,2.84,1.63C12.4,11.6,14.05,12.25,15.95,11.75z
		 M8.52,31.41c0.15-1.37,0.13-2.65,0.45-3.85c0.44-1.65-0.58-2.5-1.68-3.44c-1.27,0.72-2.54,1.38-3.72,2.14
		c-0.41,0.26-0.82,0.79-0.86,1.23c-0.11,1.27-0.04,2.56-0.04,3.91c0.73-0.1,1.54,0.4,1.83-0.6c0.01-0.03,0.58,0.05,0.86,0.15
		c0.28,0.11,0.51,0.42,0.79,0.44C6.88,31.45,7.62,31.41,8.52,31.41z M12.02,23.25c-1.31,0-2.52,0-3.85,0
		c0.49,0.56,0.94,1.14,1.48,1.64c0.16,0.14,0.7,0.16,0.84,0.02C11.05,24.4,11.53,23.8,12.02,23.25z M10.2,27.71
		c-0.07,0-0.14-0.01-0.2-0.01c-0.15,1.21-0.3,2.42-0.46,3.74c0.46-0.06,0.75-0.09,1.07-0.13C10.46,30.03,10.33,28.87,10.2,27.71z"/>
	<g>
		<path class="st0" d="M20.87,27.31c-0.34,0-0.66,0-1.04,0c0.06-0.51,0.12-1.01,0.18-1.51c0.14-1.21,0.27-2.42,0.44-3.62
			c0.19-1.35,0.85-2.02,2.2-2.29c0.9-0.18,1.8-0.16,2.69,0.03c1.18,0.26,1.83,0.97,2,2.24c0.23,1.66,0.4,3.33,0.6,5
			c0,0.03,0,0.07,0,0.13c-1.9,0-3.79,0-5.73,0c0.08-0.67,0.16-1.33,0.23-1.95c0.32,0.23,0.62,0.5,0.96,0.67
			c0.38,0.18,0.79,0.13,1.22-0.09c-0.44-0.37-0.79-0.76-0.79-1.36c0-0.6,0.28-1.03,0.75-1.37c-0.45-0.41-1.01-0.32-1.92,0.29
			c0.03-0.26,0.05-0.52,0.09-0.77c0.14-0.78,0.51-1.08,1.46-1.13c0.6-0.03,1.2-0.01,1.86-0.01c-0.14-0.13-0.24-0.3-0.4-0.38
			c-0.28-0.13-0.58-0.28-0.88-0.29c-0.72-0.02-1.45,0-2.17,0.08c-0.67,0.08-1.02,0.55-1.11,1.21c-0.2,1.53-0.38,3.06-0.56,4.58
			C20.94,26.96,20.9,27.13,20.87,27.31z"/>
		<path class="st0" d="M23.89,30.81c-1.46,0-2.92,0-4.38,0c-0.54,0-0.76-0.21-0.76-0.76c0-0.43,0-0.86,0-1.29
			c0-0.53,0.2-0.74,0.73-0.74c0.89-0.01,1.79,0,2.68,0c2.02,0,4.04,0,6.05,0c0.67,0,0.82,0.16,0.83,0.82c0,0.41,0,0.81,0,1.22
			c0,0.55-0.21,0.74-0.77,0.75C26.82,30.81,25.36,30.81,23.89,30.81C23.89,30.81,23.89,30.81,23.89,30.81z"/>
		<path class="st0" d="M27.88,16.65c-0.01,0.04-0.01,0.13-0.05,0.2c-0.32,0.53-0.63,1.08-0.99,1.58c-0.08,0.12-0.38,0.16-0.54,0.11
			c-0.23-0.06-0.33-0.29-0.25-0.53c0.19-0.57,0.39-1.14,0.61-1.69c0.12-0.3,0.39-0.43,0.71-0.37C27.68,16.01,27.89,16.3,27.88,16.65
			z"/>
		<path class="st0" d="M19.92,16.63c0.01-0.36,0.18-0.58,0.49-0.66c0.3-0.08,0.58,0.03,0.7,0.31c0.25,0.58,0.46,1.18,0.64,1.79
			c0.04,0.13-0.1,0.4-0.23,0.47c-0.13,0.07-0.45,0.04-0.51-0.06c-0.38-0.55-0.71-1.13-1.05-1.7C19.92,16.73,19.92,16.66,19.92,16.63
			z"/>
		<path class="st0" d="M29.58,22.96c-0.28,0.02-0.52-0.03-0.59-0.35c-0.07-0.32,0.11-0.5,0.4-0.59c0.47-0.16,0.94-0.32,1.41-0.47
			c0.47-0.15,0.85,0.04,0.94,0.43c0.09,0.41-0.17,0.74-0.65,0.81C30.59,22.86,30.08,22.91,29.58,22.96z"/>
		<path class="st0" d="M18.19,22.96c-0.49-0.06-0.99-0.1-1.48-0.17c-0.48-0.07-0.74-0.39-0.65-0.81c0.08-0.4,0.47-0.59,0.94-0.44
			c0.46,0.15,0.92,0.31,1.38,0.46c0.3,0.1,0.5,0.26,0.43,0.6C18.74,22.95,18.48,22.99,18.19,22.96z"/>
	</g>
</g>
</svg>
