<?xml version="1.0" encoding="utf-8"?>
<!-- Generator: Adobe Illustrator 24.1.0, SVG Export Plug-In . SVG Version: 6.00 Build 0)  -->
<svg version="1.1" id="Capa_1" xmlns="http://www.w3.org/2000/svg" xmlns:xlink="http://www.w3.org/1999/xlink" x="0px" y="0px"
	 viewBox="0 0 34 36" style="enable-background:new 0 0 34 36;" xml:space="preserve">
<style type="text/css">
	.st0{fill:#666666;}
</style>
<path class="st0" d="M12.29,32.42c0.89,0,1.7,0.03,2.51-0.02c0.21-0.01,0.39-0.29,0.62-0.36c0.33-0.09,0.73-0.22,1.01-0.11
	c0.34,0.12,0.59,0.46,0.88,0.7c0.08-0.05-0.32-5.35-0.24-5.4c0.01,0.16,0.02-0.83,0.17-0.78c1.32,0.51,1.32,6.92,1.05,7.04
	c-5.09,0-10.81,0-16.14,0c0.12-1.84,0.11-3.69,0.42-5.5c0.11-0.6,0.97-1.18,1.63-1.61c0.94-0.63,1.99-1.13,3.02-1.65
	c0.68-0.34,0.69-0.68,0.32-1.26c-1.04-1.64-2-3.33-3-4.98c-0.14-0.23-0.31-0.5-0.55-0.63c-1.28-0.68-1.9-2.2-0.96-3.19
	c0.87-0.91,0.65-1.93,0.99-2.88c0.52-1.44,0.9-3,1.78-4.25c2.29-3.27,7.41-3.25,9.88-0.08c1.27,1.63,1.82,3.48,1.91,5.43
	c0.03,0.56,0.06,1,0.61,1.46c1.12,0.93,0.74,2.75-0.58,3.49c-0.3,0.17-0.54,0.48-0.72,0.76c-1,1.63-1.93,3.29-2.96,4.89
	c-0.34,0.53-0.39,0.88,0.24,1.21c0.86,0.45,1.68,0.97,2.57,1.37c0.75,0.34,1.03,0.79,0.75,1.58c-1.34-0.69-2.66-1.38-3.96-2.05
	c-1.51,0.97-2.06,2.16-1.62,3.75C12.19,30.3,12.17,31.3,12.29,32.42z M16.57,15.29c-2.5,0.12-4.52-0.61-6.4-1.74
	c-0.64-0.38-1.29-0.77-1.99-1.07c-1.69-0.74-3.28,0.06-3.31,1.75c-0.06,3.05,0.87,5.87,3.09,8.26c1.65,1.78,3.73,1.86,5.41,0.16
	C15.4,20.59,16.32,18.12,16.57,15.29z M16.61,14c0.08-2.05-0.38-4.3-1.65-5.87c-1.37-1.71-3.99-2.38-6.24-1.6
	C6.8,7.2,5.01,9.75,5.24,11.56c1.13-0.82,2.26-0.64,3.39-0.04c0.95,0.51,1.88,1.03,2.84,1.53C13.06,13.86,14.71,14.47,16.61,14z
	 M9.18,32.42c0.15-1.28,0.13-2.48,0.45-3.61c0.44-1.55-0.58-2.34-1.68-3.22c-1.27,0.67-2.54,1.29-3.72,2.01
	c-0.41,0.24-0.82,0.74-0.86,1.15c-0.11,1.19-0.04,2.4-0.04,3.66c0.73-0.09,1.54,0.37,1.83-0.56c0.01-0.03,0.58,0.05,0.86,0.14
	c0.28,0.1,0.51,0.39,0.79,0.41C7.54,32.46,8.28,32.42,9.18,32.42z M12.68,24.78c-1.31,0-2.52,0-3.85,0
	c0.49,0.52,0.94,1.07,1.48,1.54c0.16,0.13,0.7,0.15,0.84,0.02C11.71,25.86,12.19,25.29,12.68,24.78z M10.86,28.96
	c-0.07,0-0.14-0.01-0.2-0.01c-0.15,1.13-0.3,2.27-0.46,3.5c0.46-0.06,0.75-0.08,1.07-0.12C11.12,31.13,10.99,30.04,10.86,28.96z"/>
<g>
	<path class="st0" d="M27.24,15.68c0.19,0.32,0.24,0.62,0.04,0.93c-0.03,0.04-0.01,0.11,0,0.17c0,0.03,0.04,0.05,0.05,0.08
		c0.03,0.11,0.11,0.25,0.06,0.32c-0.26,0.44,0.14,0.89-0.06,1.32c-0.15,0.32-0.38,0.43-0.91,0.47c-0.16,0.46-0.42,0.82-0.95,0.85
		c-0.61,0.04-0.92-0.34-1.06-0.74c-0.33-0.15-0.6-0.22-0.8-0.38c-0.27-0.21-0.28-0.53-0.13-0.85c0.04-0.08,0.01-0.2,0-0.29
		c-0.01-0.05-0.07-0.1-0.06-0.14c0.04-0.25,0.18-0.51,0.12-0.73c-0.06-0.25-0.22-0.47-0.1-0.73c0.07-0.16,0.06-0.25-0.07-0.37
		c-0.37-0.36-0.54-0.81-0.53-1.32c0.01-0.35-0.11-0.61-0.38-0.83c-2.35-1.94-2.12-5.61,0.47-7.24c1.46-0.92,3-1,4.52-0.19
		c1.56,0.84,2.39,2.2,2.42,3.97c0.02,1.41-0.57,2.57-1.65,3.48c-0.24,0.21-0.39,0.45-0.37,0.75C27.88,14.77,27.68,15.26,27.24,15.68
		z M25.38,15.44C25.38,15.44,25.38,15.44,25.38,15.44c0.31,0,0.62,0,0.93-0.01c0.45-0.01,0.82-0.26,0.94-0.68
		c0.06-0.19,0.08-0.39,0.08-0.58c0-0.47,0.2-0.83,0.54-1.13c0.93-0.8,1.43-1.8,1.46-3.03c0.05-2.31-1.91-4.26-4.37-3.99
		c-1.68,0.18-2.85,1.08-3.36,2.68c-0.51,1.61-0.14,3.05,1.11,4.22c0.12,0.11,0.25,0.22,0.36,0.34c0.26,0.31,0.35,0.67,0.34,1.07
		c-0.01,0.7,0.41,1.11,1.1,1.11C24.79,15.44,25.08,15.44,25.38,15.44z M25.43,16.94c-0.39,0-0.79,0-1.18,0
		c-0.17,0-0.32,0.04-0.33,0.24c0,0.2,0.14,0.25,0.32,0.25c0.77,0,1.53,0,2.3,0c0.18,0,0.37-0.04,0.33-0.26
		c-0.02-0.09-0.21-0.22-0.33-0.23C26.18,16.92,25.81,16.94,25.43,16.94z M25.4,17.94C25.4,17.94,25.4,17.94,25.4,17.94
		c-0.38,0-0.77,0-1.15,0c-0.17,0-0.32,0.04-0.33,0.24c0,0.2,0.14,0.25,0.32,0.25c0.78,0,1.55,0,2.33,0c0.17,0,0.35-0.06,0.31-0.25
		c-0.02-0.1-0.21-0.22-0.32-0.23C26.17,17.92,25.79,17.94,25.4,17.94z M25.41,16.43C25.41,16.43,25.41,16.43,25.41,16.43
		c0.38,0,0.77,0,1.15,0c0.17,0,0.33-0.05,0.32-0.25c0-0.2-0.16-0.24-0.33-0.24c-0.77,0-1.53,0-2.3,0c-0.17,0-0.32,0.05-0.32,0.25
		c0,0.21,0.16,0.24,0.33,0.24C24.64,16.43,25.02,16.43,25.41,16.43z M24.94,18.95c0.11,0.28,0.3,0.37,0.53,0.34
		c0.17-0.03,0.37-0.08,0.35-0.34C25.53,18.95,25.26,18.95,24.94,18.95z"/>
	<path class="st0" d="M32.01,7.16c-0.04,0.04-0.11,0.14-0.2,0.18c-0.46,0.21-0.92,0.42-1.39,0.61c-0.1,0.04-0.3-0.01-0.36-0.09
		c-0.11-0.15-0.01-0.29,0.16-0.36c0.47-0.21,0.94-0.42,1.42-0.62C31.83,6.79,32.01,6.91,32.01,7.16z"/>
	<path class="st0" d="M20.55,8.03c-0.11-0.04-0.18-0.05-0.25-0.08c-0.44-0.2-0.88-0.4-1.33-0.59c-0.17-0.07-0.25-0.2-0.18-0.37
		c0.08-0.18,0.23-0.16,0.39-0.09c0.45,0.2,0.91,0.39,1.36,0.6c0.09,0.05,0.18,0.19,0.19,0.3C20.75,7.87,20.62,7.96,20.55,8.03z"/>
	<path class="st0" d="M19.22,10.16c-0.25,0-0.5,0.03-0.75-0.01c-0.11-0.02-0.2-0.15-0.31-0.24c0.11-0.09,0.21-0.25,0.32-0.26
		c0.5-0.03,1-0.02,1.49,0.01c0.11,0.01,0.28,0.15,0.3,0.26c0.04,0.2-0.15,0.24-0.31,0.24C19.72,10.16,19.47,10.16,19.22,10.16
		C19.22,10.16,19.22,10.16,19.22,10.16z"/>
	<path class="st0" d="M32.09,12.79c-0.17,0.07-0.32,0.2-0.41,0.17c-0.5-0.19-1-0.41-1.48-0.65c-0.07-0.03-0.13-0.23-0.09-0.31
		c0.03-0.07,0.22-0.15,0.29-0.12c0.49,0.19,0.98,0.41,1.46,0.63C31.94,12.53,31.98,12.63,32.09,12.79z"/>
	<path class="st0" d="M20.71,12.15c-0.04,0.04-0.1,0.14-0.18,0.18c-0.46,0.21-0.92,0.42-1.39,0.61c-0.09,0.03-0.22-0.06-0.34-0.09
		c0.05-0.12,0.06-0.31,0.15-0.35c0.45-0.23,0.92-0.42,1.38-0.62C20.52,11.79,20.71,11.92,20.71,12.15z"/>
	<path class="st0" d="M31.56,10.16c-0.25,0-0.5,0.02-0.75-0.01c-0.1-0.01-0.19-0.14-0.29-0.22c0.09-0.09,0.18-0.26,0.28-0.27
		c0.51-0.03,1.02-0.03,1.52,0c0.09,0,0.18,0.16,0.27,0.25c-0.1,0.09-0.19,0.23-0.29,0.24C32.06,10.19,31.81,10.16,31.56,10.16
		C31.56,10.16,31.56,10.16,31.56,10.16z"/>
	<path class="st0" d="M20.32,4.57c0.09,0.06,0.17,0.09,0.23,0.14c0.31,0.3,0.63,0.6,0.92,0.93c0.07,0.08,0.1,0.31,0.04,0.39
		c-0.11,0.16-0.27,0.08-0.39-0.04c-0.31-0.31-0.62-0.61-0.92-0.93c-0.06-0.07-0.09-0.21-0.07-0.31C20.13,4.69,20.24,4.64,20.32,4.57
		z"/>
	<path class="st0" d="M29.37,6.16C29.32,6.11,29.22,6.07,29.19,6c-0.03-0.07-0.02-0.2,0.03-0.25c0.34-0.36,0.69-0.71,1.05-1.05
		c0.06-0.05,0.24-0.04,0.3,0.01c0.06,0.05,0.1,0.24,0.06,0.29c-0.36,0.39-0.73,0.75-1.11,1.12C29.5,6.14,29.45,6.14,29.37,6.16z"/>
	<path class="st0" d="M26.06,11.01c0,0.5,0,0.96,0,1.43c0,0.62,0,1.25,0,1.87c0,0.19-0.01,0.38-0.25,0.39
		c-0.24,0.01-0.27-0.18-0.27-0.37c0-1.42-0.01-2.84-0.01-4.26c0-0.55,0.41-1.03,0.92-1.1c0.44-0.06,0.93,0.25,1.09,0.7
		c0.22,0.62-0.26,1.32-0.94,1.34C26.44,11.01,26.28,11.01,26.06,11.01z M26.07,10.44c0.18,0.02,0.34,0.05,0.49,0.06
		c0.32,0.01,0.53-0.17,0.54-0.47c0.01-0.33-0.17-0.55-0.47-0.58c-0.31-0.02-0.53,0.17-0.55,0.49
		C26.06,10.11,26.07,10.27,26.07,10.44z"/>
	<path class="st0" d="M24.65,11.06c-0.17-0.02-0.32-0.05-0.48-0.05c-0.54-0.02-1-0.42-1.08-0.95C23.04,9.66,23.4,9.16,23.86,9
		c0.6-0.21,1.27,0.28,1.3,0.96c0.02,0.56,0.01,1.12,0.01,1.68c0,0.85,0,1.7,0,2.55c0,0.08,0.02,0.18-0.02,0.24
		c-0.06,0.1-0.17,0.17-0.25,0.25c-0.08-0.09-0.22-0.17-0.23-0.27c-0.03-0.35-0.02-0.71-0.02-1.06
		C24.65,12.6,24.65,11.85,24.65,11.06z M24.66,10.53c0-0.21,0.01-0.37,0-0.53c-0.02-0.34-0.21-0.54-0.51-0.54
		c-0.29,0-0.49,0.18-0.52,0.47c-0.03,0.33,0.12,0.52,0.46,0.58C24.26,10.52,24.44,10.51,24.66,10.53z"/>
</g>
</svg>
