<?xml version="1.0" encoding="utf-8"?>
<!-- Generator: Adobe Illustrator 24.1.0, SVG Export Plug-In . SVG Version: 6.00 Build 0)  -->
<svg version="1.1" id="Capa_1" xmlns="http://www.w3.org/2000/svg" xmlns:xlink="http://www.w3.org/1999/xlink" x="0px" y="0px"
	 viewBox="0 0 34 36" style="enable-background:new 0 0 34 36;" xml:space="preserve">
<style type="text/css">
	.st0{fill:#666666;}
</style>
<g>
	<g>
		<path class="st0" d="M26.51,4.13c2.05,0.36,3.94,2.36,4.09,4.67c0.17,2.69-1.86,5.02-4.63,5.3c-0.78,0.08-1.55,0.01-2.31-0.22
			c-0.15-0.05-0.33-0.05-0.49-0.03c-0.47,0.07-0.94,0.18-1.41,0.26c-0.55,0.09-1-0.08-1.3-0.55c-0.3-0.48-0.27-0.97,0.08-1.41
			c0.22-0.27,0.19-0.46,0.02-0.75c-1.68-2.89-0.02-6.51,3.33-7.27C24.64,3.95,25.39,3.93,26.51,4.13z M25.65,5.84
			c-0.57-0.08-1.04-0.01-1.43,0.22c-0.38,0.22-0.53,0.63-0.35,0.97c0.16,0.31,0.4,0.32,0.87,0.17c0.27-0.09,0.59-0.12,0.86-0.07
			c0.16,0.03,0.36,0.26,0.4,0.43c0.03,0.14-0.12,0.36-0.25,0.49c-0.14,0.14-0.35,0.2-0.52,0.31c-0.54,0.36-0.83,1.05-0.65,1.58
			c0.04,0.12,0.16,0.27,0.26,0.3c0.1,0.02,0.3-0.07,0.35-0.17C25.46,9.46,26,9.2,26.54,8.91c0.75-0.4,0.98-1.15,0.65-1.93
			C26.9,6.28,26.31,5.98,25.65,5.84z M25.48,11.58c0.08-0.42-0.13-0.73-0.55-0.81c-0.45-0.09-0.78,0.12-0.85,0.55
			c-0.07,0.4,0.16,0.75,0.55,0.83C25.04,12.23,25.4,12,25.48,11.58z"/>
	</g>
	<path class="st0" d="M13.83,32.53c0.89,0,1.7,0.03,2.51-0.02c0.21-0.01,0.39-0.31,0.62-0.38c0.33-0.1,0.73-0.23,1.01-0.12
		c0.34,0.13,0.59,0.49,0.88,0.75c0.08-0.05-0.32-5.71-0.24-5.76c0.01,0.17,0.02-0.89,0.17-0.83c1.32,0.54,1.32,7.39,1.05,7.51
		c-5.09,0-10.81,0-16.14,0c0.12-1.96,0.11-3.94,0.42-5.87c0.11-0.64,0.97-1.26,1.63-1.72c0.94-0.67,1.99-1.21,3.02-1.76
		c0.68-0.36,0.69-0.73,0.32-1.35c-1.04-1.75-2-3.55-3-5.32c-0.14-0.25-0.31-0.53-0.55-0.67c-1.28-0.73-1.9-2.35-0.96-3.4
		c0.87-0.97,0.65-2.06,0.99-3.07c0.52-1.54,0.9-3.2,1.78-4.54c2.29-3.49,7.41-3.47,9.88-0.09c1.27,1.74,1.82,3.71,1.91,5.8
		c0.03,0.6,0.06,1.07,0.61,1.56c1.12,0.99,0.74,2.93-0.58,3.72c-0.3,0.18-0.54,0.51-0.72,0.81c-1,1.74-1.93,3.51-2.96,5.22
		c-0.34,0.57-0.39,0.94,0.24,1.29c0.86,0.48,1.68,1.03,2.57,1.46c0.75,0.36,1.03,0.84,0.75,1.69c-1.34-0.74-2.66-1.47-3.96-2.19
		c-1.51,1.03-2.06,2.3-1.62,4C13.73,30.26,13.71,31.33,13.83,32.53z M18.11,14.24c-2.5,0.13-4.52-0.65-6.4-1.86
		c-0.64-0.41-1.29-0.82-1.99-1.14c-1.69-0.79-3.28,0.06-3.31,1.87c-0.06,3.26,0.87,6.26,3.09,8.82c1.65,1.9,3.73,1.98,5.41,0.17
		C16.94,19.9,17.86,17.26,18.11,14.24z M18.15,12.87c0.08-2.19-0.38-4.59-1.65-6.26c-1.37-1.82-3.99-2.54-6.24-1.71
		c-1.92,0.71-3.71,3.43-3.48,5.36c1.13-0.87,2.26-0.68,3.39-0.04c0.95,0.54,1.88,1.1,2.84,1.63C14.6,12.72,16.25,13.37,18.15,12.87z
		 M10.72,32.53c0.15-1.37,0.13-2.65,0.45-3.85c0.44-1.65-0.58-2.5-1.68-3.44c-1.27,0.72-2.54,1.38-3.72,2.14
		c-0.41,0.26-0.82,0.79-0.86,1.23c-0.11,1.27-0.04,2.56-0.04,3.91c0.73-0.1,1.54,0.4,1.83-0.6c0.01-0.03,0.58,0.05,0.86,0.15
		c0.28,0.11,0.51,0.42,0.79,0.44C9.08,32.57,9.82,32.53,10.72,32.53z M14.22,24.37c-1.31,0-2.52,0-3.85,0
		c0.49,0.56,0.94,1.14,1.48,1.64c0.16,0.14,0.7,0.16,0.84,0.02C13.25,25.52,13.73,24.92,14.22,24.37z M12.4,28.83
		c-0.07,0-0.14-0.01-0.2-0.01c-0.15,1.21-0.3,2.42-0.46,3.74c0.46-0.06,0.75-0.09,1.07-0.13C12.66,31.15,12.53,29.99,12.4,28.83z"/>
</g>
</svg>
