<?xml version="1.0" encoding="utf-8"?>
<!-- Generator: Adobe Illustrator 24.1.0, SVG Export Plug-In . SVG Version: 6.00 Build 0)  -->
<svg version="1.1" id="Capa_1" xmlns="http://www.w3.org/2000/svg" xmlns:xlink="http://www.w3.org/1999/xlink" x="0px" y="0px"
	 viewBox="0 0 34 36" style="enable-background:new 0 0 34 36;" xml:space="preserve">
<style type="text/css">
	.st0{fill:#666666;}
</style>
<g>
	<g>
		<path class="st0" d="M9.65,16.24c-3.83-0.01-6.93-3.12-6.92-6.95c0.01-3.83,3.13-6.93,6.96-6.92c3.82,0.01,6.91,3.12,6.91,6.94
			C16.59,13.14,13.48,16.25,9.65,16.24z M10.3,7.92c0-0.75,0-1.5,0-2.25c0-0.41-0.27-0.69-0.64-0.7C9.29,4.96,9.01,5.26,9.01,5.68
			c0,1.47,0,2.94,0,4.41c0,0.43,0.26,0.72,0.64,0.72c0.38,0.01,0.65-0.3,0.65-0.74C10.31,9.36,10.3,8.64,10.3,7.92z M9.01,12.98
			C9,13.33,9.28,13.63,9.63,13.64c0.35,0.02,0.67-0.28,0.67-0.63c0.01-0.34-0.27-0.65-0.62-0.66C9.33,12.33,9.02,12.62,9.01,12.98z"
			/>
	</g>
	<path class="st0" d="M25.45,33.49c0.89,0,1.7,0.03,2.51-0.02c0.21-0.01,0.39-0.31,0.62-0.38c0.33-0.1,0.73-0.23,1.01-0.12
		c0.34,0.13,0.59,0.49,0.88,0.75c0.08-0.05-0.32-5.71-0.24-5.76c0.01,0.17,0.02-0.89,0.17-0.83c1.32,0.54,1.32,7.39,1.05,7.51
		c-5.09,0-10.81,0-16.14,0c0.12-1.96,0.11-3.94,0.42-5.87c0.11-0.64,0.97-1.26,1.63-1.72c0.94-0.67,1.99-1.21,3.02-1.76
		c0.68-0.36,0.69-0.73,0.32-1.35c-1.04-1.75-2-3.55-3-5.32c-0.14-0.25-0.31-0.53-0.55-0.67c-1.28-0.73-1.9-2.35-0.96-3.4
		c0.87-0.97,0.65-2.06,0.99-3.07c0.52-1.54,0.9-3.2,1.78-4.54c2.29-3.49,7.41-3.47,9.88-0.09c1.27,1.74,1.82,3.71,1.91,5.8
		c0.03,0.6,0.06,1.07,0.61,1.56c1.12,0.99,0.74,2.93-0.58,3.72c-0.3,0.18-0.54,0.51-0.72,0.81c-1,1.74-1.93,3.51-2.96,5.22
		c-0.34,0.57-0.39,0.94,0.24,1.29c0.86,0.48,1.68,1.03,2.57,1.46c0.75,0.36,1.03,0.84,0.75,1.69c-1.34-0.74-2.66-1.47-3.96-2.19
		c-1.51,1.03-2.06,2.3-1.62,4C25.35,31.22,25.33,32.29,25.45,33.49z M29.73,15.2c-2.5,0.13-4.52-0.65-6.4-1.86
		c-0.64-0.41-1.29-0.82-1.99-1.14c-1.69-0.79-3.28,0.06-3.31,1.87c-0.06,3.26,0.87,6.26,3.09,8.82c1.65,1.9,3.73,1.98,5.41,0.17
		C28.56,20.86,29.48,18.22,29.73,15.2z M29.77,13.83c0.08-2.19-0.38-4.59-1.65-6.26c-1.37-1.82-3.99-2.54-6.24-1.71
		c-1.92,0.71-3.71,3.43-3.48,5.36c1.13-0.87,2.26-0.68,3.39-0.04c0.95,0.54,1.88,1.1,2.84,1.63C26.22,13.68,27.87,14.33,29.77,13.83
		z M22.34,33.49c0.15-1.37,0.13-2.65,0.45-3.85c0.44-1.65-0.58-2.5-1.68-3.44c-1.27,0.72-2.54,1.38-3.72,2.14
		c-0.41,0.26-0.82,0.79-0.86,1.23c-0.11,1.27-0.04,2.56-0.04,3.91c0.73-0.1,1.54,0.4,1.83-0.6c0.01-0.03,0.58,0.05,0.86,0.15
		c0.28,0.11,0.51,0.42,0.79,0.44C20.7,33.53,21.44,33.49,22.34,33.49z M25.84,25.33c-1.31,0-2.52,0-3.85,0
		c0.49,0.56,0.94,1.14,1.48,1.64c0.16,0.14,0.7,0.16,0.84,0.02C24.87,26.48,25.35,25.88,25.84,25.33z M24.02,29.79
		c-0.07,0-0.14-0.01-0.2-0.01c-0.15,1.21-0.3,2.42-0.46,3.74c0.46-0.06,0.75-0.09,1.07-0.13C24.28,32.11,24.15,30.95,24.02,29.79z"
		/>
</g>
</svg>
