<?xml version="1.0" encoding="utf-8"?>
<!-- Generator: Adobe Illustrator 24.1.0, SVG Export Plug-In . SVG Version: 6.00 Build 0)  -->
<svg version="1.1" id="Capa_1" xmlns="http://www.w3.org/2000/svg" xmlns:xlink="http://www.w3.org/1999/xlink" x="0px" y="0px"
	 viewBox="0 0 34 36" style="enable-background:new 0 0 34 36;" xml:space="preserve">
<style type="text/css">
	.st0{fill:#666666;}
</style>
<path class="st0" d="M22.43,27.85c0.44-1.7-0.11-2.97-1.62-4c-1.3,0.72-2.62,1.45-3.96,2.19c-0.28-0.85,0-1.33,0.75-1.69
	c0.89-0.43,1.71-0.98,2.57-1.46c0.63-0.35,0.58-0.72,0.24-1.29c-1.03-1.71-1.96-3.48-2.96-5.22c-0.18-0.3-0.42-0.63-0.72-0.81
	c-1.32-0.79-1.7-2.73-0.58-3.72c0.55-0.49,0.58-0.96,0.61-1.56c0.09-2.09,0.64-4.06,1.91-5.8c2.47-3.38,7.59-3.4,9.88,0.09
	c0.88,1.34,1.26,3,1.78,4.54c0.34,1.01,0.12,2.1,0.99,3.07c0.94,1.05,0.32,2.67-0.96,3.4c-0.24,0.14-0.41,0.42-0.55,0.67
	c-1,1.77-1.96,3.57-3,5.32c-0.37,0.62-0.36,0.99,0.32,1.35c1.03,0.55,2.08,1.09,3.02,1.76c0.66,0.46,1.52,1.08,1.63,1.72
	c0.31,1.93,0.3,3.91,0.42,5.87c-5.33,0-10.37,0-15.46,0c0.03-0.4,0.06-0.73,0.08-1.07c0.08,0.05,0.15,0.1,0.23,0.15
	c0.29-0.26,0.54-0.62,0.88-0.75c0.28-0.11,0.68,0.02,1.01,0.12c0.23,0.07,0.41,0.37,0.62,0.38c0.81,0.05,1.62,0.02,2.51,0.02
	C22.19,29.93,22.17,28.86,22.43,27.85z M20.99,20.7c1.68,1.81,3.76,1.73,5.41-0.17c2.22-2.56,3.15-5.56,3.09-8.82
	c-0.03-1.81-1.62-2.66-3.31-1.87c-0.7,0.32-1.35,0.73-1.99,1.14c-1.88,1.21-3.9,1.99-6.4,1.86C18.04,15.86,18.96,18.5,20.99,20.7z
	 M22.89,10.45c0.96-0.53,1.89-1.09,2.84-1.63c1.13-0.64,2.26-0.83,3.39,0.04c0.23-1.93-1.56-4.65-3.48-5.36
	c-2.25-0.83-4.87-0.11-6.24,1.71c-1.27,1.67-1.73,4.07-1.65,6.26C19.65,11.97,21.3,11.32,22.89,10.45z M27.55,31.11
	c0.28-0.02,0.51-0.33,0.79-0.44c0.28-0.1,0.85-0.18,0.86-0.15c0.29,1,1.1,0.5,1.83,0.6c0-1.35,0.07-2.64-0.04-3.91
	c-0.04-0.44-0.45-0.97-0.86-1.23c-1.18-0.76-2.45-1.42-3.72-2.14c-1.1,0.94-2.12,1.79-1.68,3.44c0.32,1.2,0.3,2.48,0.45,3.85
	C26.08,31.13,26.82,31.17,27.55,31.11z M23.21,24.63c0.14,0.14,0.68,0.12,0.84-0.02c0.54-0.5,0.99-1.08,1.48-1.64
	c-1.33,0-2.54,0-3.85,0C22.17,23.52,22.65,24.12,23.21,24.63z M23.09,31.03c0.32,0.04,0.61,0.07,1.07,0.13
	c-0.16-1.32-0.31-2.53-0.46-3.74c-0.06,0-0.13,0.01-0.2,0.01C23.37,28.59,23.24,29.75,23.09,31.03z"/>
<g>
	<path class="st0" d="M8.54,23.58c0.5-0.53,0.94-1.07,1.45-1.53c1.11-1.01,2.45-1.55,3.94-1.7c0.48-0.05,0.55,0.02,0.58,0.5
		c0.02,0.35,0.02,0.7,0.06,1.04c0.01,0.09,0.12,0.21,0.2,0.23c0.28,0.08,0.57,0.13,0.85,0.19c0.25,0.05,0.36,0.22,0.37,0.46
		c0.14,2.9,0.29,5.8,0.43,8.7c0.03,0.51-0.06,0.57-0.56,0.45c-2.32-0.53-4.47-0.14-6.47,1.13c-0.16,0.1-0.47,0.13-0.64,0.04
		c-2.06-1.04-4.19-1.24-6.39-0.54c-0.7,0.22-0.69,0.24-0.72-0.49c-0.07-1.45-0.15-2.89-0.22-4.34c-0.06-1.23-0.13-2.46-0.19-3.7
		c0-0.09,0-0.18-0.02-0.27c-0.09-0.54-0.07-0.58,0.44-0.79c0.26-0.11,0.63-0.16,0.76-0.36c0.12-0.19,0.01-0.54,0-0.82
		c0-0.03,0-0.07,0-0.1c-0.04-0.8-0.01-0.82,0.8-0.79c2.04,0.07,3.71,0.93,5.09,2.41C8.39,23.41,8.47,23.5,8.54,23.58z M8.67,32.02
		c-0.13-2.6-0.26-5.1-0.39-7.59c0-0.09-0.05-0.2-0.11-0.27c-0.82-0.96-1.78-1.74-2.97-2.19c-0.7-0.27-1.43-0.42-2.2-0.4
		c0.14,2.7,0.27,5.38,0.41,8.08c0.99,0.03,1.95,0.2,2.84,0.61C7.15,30.66,7.93,31.24,8.67,32.02z M13.94,21
		c-0.13,0.01-0.24,0.02-0.35,0.04c-1.97,0.34-3.45,1.42-4.54,3.07c-0.07,0.1-0.09,0.25-0.08,0.38c0.12,2.39,0.24,4.77,0.36,7.16
		c0,0.07,0.03,0.13,0.05,0.24c0.65-0.8,1.37-1.45,2.22-1.95c0.85-0.5,1.78-0.78,2.75-0.91C14.21,26.33,14.07,23.68,13.94,21z
		 M14.61,22.74c0.01,0.19,0.02,0.32,0.02,0.44c0.1,1.98,0.2,3.96,0.3,5.95c0.02,0.39-0.04,0.42-0.42,0.49
		c-0.57,0.1-1.15,0.18-1.7,0.37c-1.08,0.36-1.96,1.04-2.69,1.93c1.84-0.77,3.72-1.04,5.68-0.64c0.02-0.04,0.03-0.06,0.03-0.08
		c-0.13-2.69-0.27-5.37-0.41-8.06c0-0.08-0.08-0.19-0.15-0.21C15.07,22.84,14.86,22.8,14.61,22.74z M7.59,31.88
		c-1.23-1.05-2.63-1.6-4.25-1.57c-0.42,0.01-0.49-0.05-0.51-0.47c-0.1-2.04-0.21-4.08-0.31-6.12c-0.01-0.12-0.01-0.24-0.02-0.36
		c-0.71,0.18-0.71,0.18-0.68,0.83c0.12,2.46,0.25,4.93,0.38,7.39c0.01,0.11,0.02,0.21,0.04,0.36C4.03,31.35,5.8,31.4,7.59,31.88z"/>
	<path class="st0" d="M7.44,28.14c-0.15-0.08-0.26-0.12-0.35-0.2c-0.66-0.51-1.38-0.87-2.19-1.06c-0.19-0.05-0.41-0.1-0.36-0.35
		c0.05-0.26,0.25-0.28,0.5-0.23c0.96,0.19,1.79,0.64,2.54,1.25c0.08,0.07,0.13,0.23,0.11,0.34C7.66,27.98,7.53,28.05,7.44,28.14z"/>
	<path class="st0" d="M7.53,29.63c-0.14-0.07-0.25-0.1-0.33-0.16c-0.67-0.52-1.41-0.9-2.25-1.09c-0.19-0.04-0.39-0.11-0.34-0.37
		c0.05-0.27,0.23-0.27,0.46-0.23c0.97,0.19,1.81,0.63,2.56,1.25c0.08,0.07,0.14,0.23,0.13,0.33C7.75,29.47,7.62,29.54,7.53,29.63z"
		/>
	<path class="st0" d="M7.3,25.12c-0.14-0.07-0.26-0.11-0.35-0.18c-0.66-0.49-1.38-0.87-2.19-1.06c-0.21-0.05-0.41-0.15-0.35-0.4
		c0.06-0.27,0.27-0.23,0.49-0.19c0.94,0.19,1.77,0.62,2.5,1.24c0.09,0.07,0.15,0.23,0.15,0.33C7.53,24.95,7.39,25.02,7.3,25.12z"/>
	<path class="st0" d="M4.72,24.71c0.43,0.13,0.84,0.2,1.2,0.38c0.54,0.27,1.04,0.61,1.55,0.93c0.17,0.11,0.22,0.25,0.11,0.43
		c-0.13,0.19-0.31,0.19-0.47,0.06c-0.71-0.57-1.51-0.96-2.4-1.17c-0.1-0.03-0.21-0.22-0.23-0.35C4.47,24.91,4.63,24.81,4.72,24.71z"
		/>
	<path class="st0" d="M12.52,22.83c0.06,0.06,0.21,0.14,0.22,0.23c0.01,0.12-0.06,0.33-0.14,0.35c-0.89,0.29-1.63,0.83-2.34,1.42
		c-0.09,0.07-0.31-0.02-0.48-0.03c0.02-0.13-0.01-0.3,0.06-0.38c0.71-0.74,1.55-1.28,2.54-1.56C12.41,22.86,12.43,22.86,12.52,22.83
		z"/>
	<path class="st0" d="M12.78,27.27c0.05,0.05,0.17,0.11,0.19,0.21c0.05,0.18,0,0.33-0.22,0.42c-0.45,0.19-0.91,0.39-1.32,0.64
		c-0.35,0.22-0.63,0.53-0.96,0.78c-0.08,0.06-0.3,0.07-0.36,0.01c-0.09-0.09-0.16-0.33-0.11-0.38
		C10.74,28.14,11.63,27.57,12.78,27.27z"/>
	<path class="st0" d="M12.68,25.77c0.06,0.07,0.22,0.17,0.21,0.24c-0.02,0.14-0.11,0.32-0.23,0.38c-0.49,0.28-1.02,0.5-1.51,0.79
		c-0.27,0.16-0.51,0.4-0.73,0.64c-0.16,0.17-0.27,0.15-0.42,0.02c-0.19-0.16-0.18-0.32-0.01-0.48c0.68-0.67,1.44-1.2,2.36-1.48
		C12.44,25.84,12.52,25.81,12.68,25.77z"/>
	<path class="st0" d="M12.83,24.65c-0.06,0.05-0.14,0.2-0.26,0.24c-0.88,0.3-1.64,0.77-2.27,1.45c-0.05,0.06-0.25,0.07-0.31,0.02
		C9.9,26.28,9.85,26.13,9.82,26c-0.01-0.05,0.07-0.13,0.13-0.19c0.69-0.68,1.47-1.21,2.41-1.48C12.66,24.24,12.82,24.32,12.83,24.65
		z"/>
</g>
</svg>
